<?xml version="1.0" encoding="UTF-8"?><svg id="Layer_2" xmlns="http://www.w3.org/2000/svg" viewBox="0 0 343.4 732.88"><defs><style>.cls-1{stroke-width:0px;}</style></defs><g id="Layer_1-2"><g id="_1_A"><path class="cls-1" d="M131.31,176.65l-63.29-5.53-63.7-2.58,2.53-80.37L4.22,7.7l63.49-.74,67.72,2.67L203.15,0l67.72,11.17L341.09,1.97l-6.97,75.15,7.69,72.83-9.67,72.83,8.23,72.83-3.2,72.83-1.17,72.83,7.4,72.83-12.02,72.84,2.67,72.84,3.82,72.17-66.79-6.28-67.52,3.13-67.77,4.06,2.37-70.32-9.23-70.07,1.11-70.07,2.28-70.07-2.64-70.07.29-70.07,4.9-70.03-3.55-65.52Z"/></g></g></svg>