<?xml version="1.0" encoding="UTF-8"?><svg id="Layer_2" xmlns="http://www.w3.org/2000/svg" viewBox="0 0 348.82 736.58"><defs><style>.cls-1{stroke-width:0px;}</style></defs><g id="Layer_1-2"><g id="_1_A"><path class="cls-1" d="M145.11,167.65l-72.29,11.04-62.9-11.06-.96-79.72L0,.16l72.5,3.6,67.72,5.77,67.72-1.3,67.72-6.96,72.05-1.27-9.21,76.86,6.82,72.83-9,72.83,5.26,72.83-3.13,72.83,7.48,72.83,2.88,72.83-3.08,72.84-7.84,72.84,10.04,77.06-72.06-9.51-67.52-.61-71.25,9.5,9.92-73.67-.37-70.07-8.34-70.07-2.26-70.07-1.12-70.07.53-70.07.14-70.23,9.49-74.06Z"/></g></g></svg>