<?xml version="1.0" encoding="UTF-8"?><svg id="Layer_2" xmlns="http://www.w3.org/2000/svg" viewBox="0 0 580.92 1004.63"><defs><style>.cls-1{stroke-width:0px;}</style></defs><g id="Layer_1-2"><polygon id="_1_A_Crack" class="cls-1" points="234.59 298.88 162.3 309.92 99.4 298.86 98.43 219.14 89.48 131.39 161.99 134.99 229.7 140.76 297.42 139.46 300.73 90.5 328.8 58.44 270.31 0 335.2 51.12 379.94 0 307.95 92.19 308.52 139.52 365.15 132.5 431.82 131.32 515.77 104.76 538.31 55.6 516.22 107.4 482.61 119.82 534.94 169.46 479.13 121.11 436.53 136.86 427.99 208.09 434.81 280.92 425.81 353.75 484.56 367.13 580.92 343.72 482.56 371.55 425.94 364.63 431.07 426.59 427.94 499.42 435.42 572.25 438.3 645.08 435.22 717.92 427.38 790.76 437.42 867.81 365.36 858.3 297.84 857.7 233.58 866.26 192.68 901.78 276.35 942.48 341.13 912.14 276.42 947.12 251.41 936.94 247.08 1004.63 245.94 934.72 186.95 910.7 40.8 958.51 180.71 903.75 227.84 857.87 236.51 793.53 236.14 723.46 228.87 662.41 143.67 677.42 81.54 622.98 2.52 694.59 80.15 619.98 0 547.48 145.56 671.12 227.8 653.39 225.54 583.32 224.42 513.25 224.95 443.17 225.1 372.94 234.59 298.88"/></g></svg>