<?xml version="1.0" encoding="UTF-8"?><svg id="Layer_2" xmlns="http://www.w3.org/2000/svg" viewBox="0 0 344.15 738.11"><defs><style>.cls-1{fill:none;stroke:#fff;stroke-miterlimit:10;stroke-width:2px;}.cls-2{fill:#fff;stroke-width:0px;}</style></defs><g id="Layer_1-2"><g id="_1_A_Crack_02"><polyline class="cls-1" points="332.21 220.18 277.25 311.36 335.3 337.49"/><polyline class="cls-1" points="343.48 534.35 261.24 511.31 281.37 572.13 340.75 591.97"/><polyline class="cls-1" points="261.24 362.68 290.14 389.88 290.14 389.88 290.14 389.88 305.19 404.04 305.19 404.04 305.19 404.04 341.01 437.76"/><line class="cls-1" x1="335.3" y1="337.49" x2="277.25" y2="311.36"/><polyline class="cls-1" points="120.55 130.76 164.51 164.46 185.99 155.01"/><polyline class="cls-1" points="261.24 511.31 305.19 404.04 290.14 389.88"/><polyline class="cls-1" points="222.03 330.85 148.84 356.69 185.99 431.5"/><polyline class="cls-1" points="226.1 282.3 166.25 272.42 222.03 330.85 222.03 330.85"/><line class="cls-1" x1="290.14" y1="389.88" x2="261.24" y2="362.68"/><polyline class="cls-1" points="202.86 564.35 202.86 599.01 227.62 618.11 276.25 668.21 281.37 572.13 261.24 511.31"/><path class="cls-2" d="M152.16,488.4l48.7,76.53v33.09l-29.47,22.77-19.23-132.39M148.84,479.46l21.06,145.01,32.96-25.46v-34.66l-54.02-84.89h0Z"/><polyline class="cls-1" points="185.99 431.5 148.84 479.46 202.86 564.35"/><line class="cls-1" x1="271.64" y1="193.28" x2="332.21" y2="220.18"/><polyline class="cls-1" points="185.99 155.01 164.51 164.46 140.6 168.48 185.99 202.1"/><line class="cls-1" x1="338.71" y1="127.98" x2="274.04" y2="134.2"/><polyline class="cls-1" points="130.81 332.88 148.84 356.69 222.03 330.85 222.03 330.85 166.25 272.42 131.08 256.56"/><polyline class="cls-1" points="199.12 727.92 169.9 624.47 142.33 627.72"/><polyline class="cls-1" points="131.49 449.22 131.49 449.22 148.84 479.46 185.99 431.5 148.84 356.69 130.81 332.88"/><polyline class="cls-1" points="202.86 727.42 202.86 599.01 169.9 624.47 199.12 727.92"/><polyline class="cls-1" points="142.33 627.72 169.9 624.47 148.84 479.46 131.49 449.22 131.49 449.22"/><polyline class="cls-1" points="246.56 727.67 276.25 668.21 276.25 668.21 227.62 618.11 202.86 599.01 202.86 727.42"/><polyline class="cls-1" points="343.43 737.41 276.25 668.21 276.25 668.21 246.56 727.67"/><polyline class="cls-1" points="130.32 32.1 103.95 32.1 60.97 32.1 40.45 14.52 27.93 2.6"/><line class="cls-1" x1=".35" y1="48.58" x2="98.08" y2="84.85"/><polyline class="cls-1" points="185.99 55.55 206.51 22.33 206.51 8.74 203.43 9.06"/><polyline class="cls-1" points="27.93 2.6 40.45 14.52 60.97 32.1 103.95 32.1 130.32 32.1"/><line class="cls-1" x1="274.04" y1="134.2" x2="338.71" y2="127.98"/><line class="cls-1" x1="343.21" y1=".83" x2="267.64" y2="52.55"/><polyline class="cls-1" points="206.51 8.74 206.51 22.33 185.99 55.55"/><polyline class="cls-1" points="267.64 52.55 237.18 57.5 267.64 52.55 343.21 .83"/><polyline class="cls-1" points="131.08 256.56 166.25 272.42 185.99 202.1 140.6 168.48"/><polyline class="cls-1" points="140.6 168.48 164.51 164.46 120.55 130.76 68.27 179.51 68.31 179.52"/><polyline class="cls-1" points="4.73 112.63 37.52 96.57 98.08 84.85 .35 48.58"/><polyline class="cls-1" points="98.08 84.85 37.52 96.57 4.73 112.63"/><line class="cls-1" x1="68.27" y1="179.51" x2="120.55" y2="130.76"/><polyline class="cls-1" points="5.27 157.05 102.77 147.34 5.27 157.05"/></g></g></svg>