<?xml version="1.0" encoding="UTF-8"?><svg id="Layer_2" xmlns="http://www.w3.org/2000/svg" viewBox="0 0 339.85 738.11"><defs><style>.cls-1{fill:none;stroke:#fff;stroke-miterlimit:10;stroke-width:2px;}</style></defs><g id="Layer_1-2"><g id="_1_A_Crack_01"><polyline class="cls-1" points="327.92 220.18 272.95 311.36 331.01 337.49"/><polyline class="cls-1" points="256.94 362.68 285.84 389.88 285.84 389.88 285.84 389.88 300.89 404.04 300.89 404.04 300.89 404.04 336.71 437.76"/><line class="cls-1" x1="331.01" y1="337.49" x2="272.95" y2="311.36"/><line class="cls-1" x1="300.89" y1="404.04" x2="285.84" y2="389.88"/><line class="cls-1" x1="144.55" y1="356.69" x2="181.7" y2="431.5"/><line class="cls-1" x1="285.84" y1="389.88" x2="256.94" y2="362.68"/><line class="cls-1" x1="144.55" y1="479.46" x2="165.61" y2="624.47"/><line class="cls-1" x1="181.7" y1="431.5" x2="144.55" y2="479.46"/><line class="cls-1" x1="267.35" y1="193.28" x2="327.92" y2="220.18"/><line class="cls-1" x1="160.21" y1="164.46" x2="136.31" y2="168.48"/><line class="cls-1" x1="334.42" y1="127.98" x2="269.75" y2="134.2"/><line class="cls-1" x1="161.95" y1="272.42" x2="126.79" y2="256.56"/><line class="cls-1" x1="126.52" y1="332.88" x2="144.55" y2="356.69"/><polyline class="cls-1" points="194.82 727.92 165.61 624.47 138.04 627.72"/><polyline class="cls-1" points="127.19 449.22 127.19 449.22 144.55 479.46 181.7 431.5 144.55 356.69 126.52 332.88"/><line class="cls-1" x1="165.61" y1="624.47" x2="194.82" y2="727.92"/><polyline class="cls-1" points="138.04 627.72 165.61 624.47 144.55 479.46 127.19 449.22 127.19 449.22"/><polyline class="cls-1" points="242.27 727.67 271.96 668.21 271.96 668.21"/><polyline class="cls-1" points="339.13 737.41 271.96 668.21 271.96 668.21 242.27 727.67"/><polyline class="cls-1" points="126.02 32.1 99.65 32.1 56.67 32.1 36.16 14.52 23.64 2.6"/><polyline class="cls-1" points="181.7 55.55 202.22 22.33 202.22 8.74 199.14 9.06"/><polyline class="cls-1" points="23.64 2.6 36.16 14.52 56.67 32.1 99.65 32.1 126.02 32.1"/><line class="cls-1" x1="269.75" y1="134.2" x2="334.42" y2="127.98"/><line class="cls-1" x1="338.92" y1=".83" x2="263.34" y2="52.55"/><polyline class="cls-1" points="202.22 8.74 202.22 22.33 181.7 55.55"/><line class="cls-1" x1="263.34" y1="52.55" x2="338.92" y2=".83"/><line class="cls-1" x1="126.79" y1="256.56" x2="161.95" y2="272.42"/><line class="cls-1" x1="63.97" y1="179.51" x2="64.01" y2="179.52"/><line class="cls-1" x1="136.31" y1="168.48" x2="160.21" y2="164.46"/><line class="cls-1" x1=".44" y1="112.63" x2="33.23" y2="96.57"/><line class="cls-1" x1="33.23" y1="96.57" x2=".44" y2="112.63"/></g></g></svg>