<?xml version="1.0" encoding="UTF-8"?><svg id="Layer_2" xmlns="http://www.w3.org/2000/svg" viewBox="0 0 348.82 736.58"><defs><style>.cls-1{stroke-width:0px;}</style></defs><g id="Layer_1-2"><g id="_1_A_Crack"><polygon class="cls-1" points="265.74 510.48 347.99 533.52 348.82 513.85 345.94 441.02 345.52 436.93 309.7 403.22 265.74 510.48"/><polygon class="cls-1" points="339.81 336.67 341.58 295.36 336.33 222.52 336.72 219.35 281.75 310.54 339.81 336.67"/><polygon class="cls-1" points="285.88 571.31 345.26 591.15 345.74 586.69 347.99 533.52 265.74 510.48 285.88 571.31"/><polygon class="cls-1" points="226.53 330.03 265.74 361.85 294.65 389.05 294.65 389.05 294.65 389.05 309.7 403.22 309.7 403.22 309.7 403.22 345.52 436.93 338.46 368.19 339.81 336.67 281.75 310.54 226.53 330.03"/><polygon class="cls-1" points="281.75 310.54 336.72 219.35 336.72 219.35 230.61 281.48 281.75 310.54"/><polygon class="cls-1" points="125.06 129.94 169.01 163.63 190.5 154.19 190.5 87.93 125.06 129.94"/><polygon class="cls-1" points="190.5 201.28 170.75 271.6 230.61 281.48 336.72 219.35 336.72 219.35 276.15 192.45 190.5 201.28"/><polygon class="cls-1" points="229.29 526.75 265.74 510.48 309.7 403.22 294.65 389.05 212.77 485.83 229.29 526.75"/><polygon class="cls-1" points="226.53 330.03 153.35 355.87 190.5 430.67 265.74 361.85 226.53 330.03"/><polygon class="cls-1" points="212.77 485.83 207.37 563.53 229.29 526.75 212.77 485.83 212.77 485.83"/><polygon class="cls-1" points="230.61 281.48 170.75 271.6 226.53 330.03 226.53 330.03 281.75 310.54 230.61 281.48"/><polygon class="cls-1" points="217.71 118.96 190.5 154.19 278.55 133.37 252.94 106.16 217.71 118.96"/><polygon class="cls-1" points="294.65 389.05 265.74 361.85 190.5 430.67 212.77 485.83 294.65 389.05"/><polygon class="cls-1" points="229.29 526.75 207.37 563.53 207.37 598.19 232.12 617.28 280.76 667.39 285.88 571.31 265.74 510.48 229.29 526.75"/><polygon class="cls-1" points="153.35 478.64 174.41 623.65 207.37 598.19 207.37 563.53 153.35 478.64"/><polygon class="cls-1" points="212.77 485.83 212.77 485.83 190.5 430.67 153.35 478.64 207.37 563.53 212.77 485.83"/><polygon class="cls-1" points="276.15 192.45 222.96 146.51 276.15 192.45 336.72 219.35 345.33 149.69 343.22 127.16 278.55 133.37 190.5 154.19 169.01 163.63 145.11 167.65 190.5 201.28 276.15 192.45"/><polygon class="cls-1" points="226.53 330.03 226.53 330.03 170.75 271.6 135.59 255.74 135.47 311.94 135.32 332.06 153.35 355.87 226.53 330.03"/><polygon class="cls-1" points="146.84 626.9 147.03 662.3 137.1 735.97 203.63 727.1 174.41 623.65 146.84 626.9"/><polygon class="cls-1" points="153.35 478.64 190.5 430.67 153.35 355.87 135.32 332.06 134.94 382.02 135.99 448.4 135.99 448.4 153.35 478.64"/><polygon class="cls-1" points="174.41 623.65 203.63 727.1 207.37 726.6 207.37 598.19 174.41 623.65"/><polygon class="cls-1" points="153.35 478.64 135.99 448.4 135.99 448.4 136.05 452.09 138.32 522.16 146.65 592.23 146.84 626.9 174.41 623.65 153.35 478.64"/><polygon class="cls-1" points="285.88 571.31 280.76 667.39 347.94 736.58 337.9 659.53 345.26 591.15 285.88 571.31"/><polygon class="cls-1" points="280.76 667.39 232.12 617.28 207.37 598.19 207.37 726.6 208.36 726.47 251.07 726.85 280.76 667.39 280.76 667.39"/><polygon class="cls-1" points="280.76 667.39 251.07 726.85 275.87 727.07 347.94 736.58 280.76 667.39 280.76 667.39"/><polygon class="cls-1" points="190.5 87.93 134.83 31.28 108.45 31.28 65.47 31.28 44.96 13.7 32.44 1.77 0 .16 4.86 47.75 102.59 84.03 190.5 87.93"/><polygon class="cls-1" points="65.47 31.28 108.45 31.28 134.83 31.28 190.5 87.93 190.5 54.72 211.02 21.51 211.02 7.92 207.94 8.23 140.22 9.53 72.5 3.76 32.44 1.77 44.96 13.7 65.47 31.28"/><polygon class="cls-1" points="252.94 106.16 278.55 133.37 343.22 127.16 338.51 76.86 347.72 0 272.15 51.73 252.94 106.16"/><polygon class="cls-1" points="190.5 54.72 190.5 87.93 190.5 154.19 217.71 118.96 262.48 2.62 211.02 7.92 211.02 21.51 190.5 54.72"/><polygon class="cls-1" points="252.94 106.16 272.15 51.73 241.69 56.67 272.15 51.73 347.72 0 275.66 1.27 262.48 2.62 217.71 118.96 252.94 106.16"/><polygon class="cls-1" points="190.5 201.28 145.11 167.65 135.62 241.71 135.59 255.74 170.75 271.6 190.5 201.28"/><polygon class="cls-1" points="125.06 129.94 72.77 178.69 72.81 178.69 145.11 167.65 169.01 163.63 125.06 129.94"/><polygon class="cls-1" points="102.59 84.03 4.86 47.75 8.95 87.91 9.24 111.81 42.03 95.75 102.59 84.03"/><polygon class="cls-1" points="190.5 87.93 102.59 84.03 42.03 95.75 9.24 111.81 9.78 156.22 107.28 146.51 9.78 156.22 9.92 167.63 72.77 178.69 125.06 129.94 190.5 87.93"/></g></g></svg>