<?xml version="1.0" encoding="UTF-8"?><svg id="Layer_2" xmlns="http://www.w3.org/2000/svg" viewBox="0 0 344.15 738.11"><defs><style>.cls-1{fill:none;stroke:#fff;stroke-miterlimit:10;stroke-width:2px;}.cls-2{fill:#fff;stroke-width:0px;}</style></defs><g id="Layer_1-2"><g id="_1_A_Crack_03"><polyline class="cls-1" points="332.21 220.18 277.25 311.36 335.3 337.49"/><polyline class="cls-1" points="343.48 534.35 261.24 511.31 281.37 572.13 340.75 591.97"/><polyline class="cls-1" points="335.3 337.49 277.25 311.36 222.03 330.85 261.24 362.68 290.14 389.88 290.14 389.88 290.14 389.88 305.19 404.04 305.19 404.04 305.19 404.04 341.01 437.76"/><path class="cls-2" d="M326.45,225.87l-49.91,82.79-46.43-26.38,96.34-56.41M332.21,220.18l-106.11,62.13,51.14,29.06,54.97-91.18h0Z"/><path class="cls-2" d="M183.99,92.42v61.29l-19.21,8.45-40.76-31.25,59.96-38.49M185.99,88.76l-65.44,42,43.96,33.7,21.48-9.45v-66.25h0Z"/><path class="cls-2" d="M271.32,195.32l56.52,25.1-102.12,59.79-56.94-9.4,18.77-66.86,83.77-8.63M271.64,193.28l-85.65,8.83-19.75,70.32,59.86,9.88,106.11-62.13-60.57-26.9h0Z"/><path class="cls-2" d="M290.3,392.78l12.51,11.78-43.13,105.25-33.82,15.1-15.29-37.88,79.73-94.25M290.14,389.88l-81.88,96.78,16.52,40.92,36.45-16.27,43.95-107.26-15.05-14.16h0Z"/><path class="cls-2" d="M221.64,333.11l36.54,29.65-71.57,65.46-34.96-70.4,70-24.71M222.03,330.85l-73.18,25.84,37.15,74.81,75.24-68.82-39.21-31.82h0Z"/><path class="cls-2" d="M209.66,495.45l12.9,31.96-17.12,28.72,4.22-60.68M208.26,486.66l-5.4,77.7,21.93-36.78-16.52-40.92h0Z"/><path class="cls-2" d="M171.83,275.37l53.6,8.85,47.02,26.72-49.87,17.6-50.76-53.17M166.25,272.42l55.78,58.43,55.22-19.49-51.14-29.06-59.86-9.88h0Z"/><path class="cls-2" d="M247.87,109.31l22.34,23.74-79.19,18.72,23.41-30.29,33.44-12.16M248.43,106.98l-35.22,12.81-27.22,35.22,88.05-20.81-25.61-27.22h0Z"/><path class="cls-2" d="M261.22,365.4l26.17,24.63-78.51,92.8-20.51-50.8,72.85-66.63M261.24,362.68l-75.24,68.82,22.27,55.16,81.88-96.78-28.9-27.2h0Z"/><path class="cls-2" d="M260.03,514.04l19.32,58.37-4.85,91.13-45.45-46.82-.1-.1-.11-.09-23.98-18.5v-33.12l21.32-35.76,33.85-15.11M261.24,511.31l-36.45,16.27-21.93,36.78v34.66l24.75,19.1,48.64,50.1,5.12-96.08-20.13-60.83h0Z"/><path class="cls-2" d="M152.16,488.4l48.7,76.53v33.09l-29.47,22.77-19.23-132.39M148.84,479.46l21.06,145.01,32.96-25.46v-34.66l-54.02-84.89h0Z"/><path class="cls-2" d="M185.44,435.47l20.8,51.5-4.95,71.18-50-78.58,34.15-44.1M185.99,431.5l-37.15,47.96,54.02,84.89,5.4-77.7-22.27-55.16h0Z"/><polyline class="cls-1" points="338.71 127.98 274.04 134.2 185.99 155.01 164.51 164.46 140.6 168.48 185.99 202.1 271.64 193.28 218.46 147.34 271.64 193.28 332.21 220.18"/><polyline class="cls-1" points="130.81 332.88 148.84 356.69 222.03 330.85 222.03 330.85 166.25 272.42 131.08 256.56"/><polyline class="cls-1" points="199.12 727.92 169.9 624.47 142.33 627.72"/><polyline class="cls-1" points="131.49 449.22 131.49 449.22 148.84 479.46 185.99 431.5 148.84 356.69 130.81 332.88"/><polyline class="cls-1" points="202.86 727.42 202.86 599.01 169.9 624.47 199.12 727.92"/><polyline class="cls-1" points="142.33 627.72 169.9 624.47 148.84 479.46 131.49 449.22 131.49 449.22"/><polyline class="cls-1" points="246.56 727.67 276.25 668.21 276.25 668.21 227.62 618.11 202.86 599.01 202.86 727.42"/><polyline class="cls-1" points="343.43 737.41 276.25 668.21 276.25 668.21 246.56 727.67"/><polyline class="cls-1" points=".35 48.58 98.08 84.85 185.99 88.76 130.32 32.1 103.95 32.1 60.97 32.1 40.45 14.52 27.93 2.6"/><polyline class="cls-1" points="27.93 2.6 40.45 14.52 60.97 32.1 103.95 32.1 130.32 32.1 185.99 88.76 185.99 55.55 206.51 22.33 206.51 8.74 203.43 9.06"/><polyline class="cls-1" points="343.21 .83 267.64 52.55 248.43 106.98 274.04 134.2 338.71 127.98"/><polyline class="cls-1" points="206.51 8.74 206.51 22.33 185.99 55.55 185.99 88.76 185.99 155.01 213.21 119.79 257.98 3.45"/><polyline class="cls-1" points="257.98 3.45 213.21 119.79 248.43 106.98 267.64 52.55 237.18 57.5 267.64 52.55 343.21 .83"/><polyline class="cls-1" points="131.08 256.56 166.25 272.42 185.99 202.1 140.6 168.48"/><polyline class="cls-1" points="140.6 168.48 164.51 164.46 120.55 130.76 68.27 179.51 68.31 179.52"/><polyline class="cls-1" points="4.73 112.63 37.52 96.57 98.08 84.85 .35 48.58"/><polyline class="cls-1" points="68.27 179.51 120.55 130.76 185.99 88.76 98.08 84.85 37.52 96.57 4.73 112.63"/><polyline class="cls-1" points="5.27 157.05 102.77 147.34 5.27 157.05"/></g></g></svg>