<?xml version="1.0" encoding="UTF-8"?><svg id="Layer_2" xmlns="http://www.w3.org/2000/svg" viewBox="0 0 565.63 747.25"><defs><style>.cls-1{stroke-width:0px;}</style></defs><g id="Layer_1-2"><g id="_2_A"><polygon class="cls-1" points="8.08 632.96 52.86 581.99 107.42 539.32 151.78 486.54 200.4 437.98 243.69 384.12 296.94 340.15 337.76 251.18 323.37 188.8 259.12 166.26 185.86 204.67 130.31 267.98 66.29 203.96 0 144.62 42.67 97.98 92.82 57.85 147.72 22.77 212.08 11.85 276.51 0 343.45 9.43 410.3 22.23 462.9 65.05 514.44 109.67 529.84 176.19 536.74 241.97 542.93 307.23 518.02 367.95 476.98 418.23 432.94 464.89 371.46 514.67 318.39 573.43 398.58 571.31 478.71 579.68 562.48 569.93 565.63 657.29 563.25 744.81 489.67 744.48 420.49 741.99 351.32 746.37 282.14 747.25 212.97 742.8 143.79 743.46 74.61 746.76 8.16 737.71 5.98 686.46 8.08 632.96"/></g></g></svg>